<svg width="48" height="48" viewBox="0 0 48 48" fill="none" xmlns="http://www.w3.org/2000/svg">
<g clip-path="url(#clip0)">
<rect width="48" height="48" fill="white"/>
<path d="M30.5 40.5C30.5 41.6457 29.4516 43.1445 26.6771 44.4451C24.0221 45.6896 20.2488 46.5 16 46.5C11.7512 46.5 7.97793 45.6896 5.32294 44.4451C2.54839 43.1445 1.5 41.6457 1.5 40.5C1.5 39.3543 2.54839 37.8555 5.32294 36.5549C7.97793 35.3104 11.7512 34.5 16 34.5C20.2488 34.5 24.0221 35.3104 26.6771 36.5549C29.4516 37.8555 30.5 39.3543 30.5 40.5Z" stroke="#152C5B" stroke-width="3"/>
<path d="M28.5 11.5814C28.5 14.5205 27.0007 21.8056 24.497 28.4074C23.2517 31.6907 21.7992 34.6916 20.2359 36.843C18.6128 39.0768 17.1631 40 16 40C14.8369 40 13.3872 39.0768 11.7641 36.843C10.2008 34.6916 8.74827 31.6907 7.50302 28.4074C4.99926 21.8056 3.5 14.5205 3.5 11.5814C3.5 6.26726 8.81766 1.5 16 1.5C23.1823 1.5 28.5 6.26726 28.5 11.5814Z" fill="white" stroke="#152C5B" stroke-width="3"/>
<circle cx="16" cy="14" r="4.5" stroke="#FF498D" stroke-width="3"/>
</g>
<defs>
<clipPath id="clip0">
<rect width="48" height="48" fill="white"/>
</clipPath>
</defs>
</svg>
