<svg width="29" height="28" viewBox="0 0 29 28" fill="none" xmlns="http://www.w3.org/2000/svg">
<path d="M13.6816 1.66167C13.981 0.740356 15.2844 0.740359 15.5838 1.66167L18.202 9.71984C18.3359 10.1319 18.7198 10.4108 19.1531 10.4108H27.6259C28.5947 10.4108 28.9974 11.6504 28.2137 12.2198L21.359 17.2001C21.0085 17.4547 20.8619 17.9061 20.9958 18.3181L23.614 26.3763C23.9134 27.2976 22.8589 28.0637 22.0752 27.4943L15.2205 22.5141C14.87 22.2594 14.3954 22.2594 14.0449 22.5141L7.19022 27.4943C6.40651 28.0637 5.35203 27.2976 5.65139 26.3763L8.26964 18.3181C8.40352 17.9061 8.25686 17.4547 7.90637 17.2001L1.05168 12.2198C0.267968 11.6504 0.670747 10.4108 1.63947 10.4108H10.1123C10.5456 10.4108 10.9295 10.1319 11.0634 9.71984L13.6816 1.66167Z" fill="#FFCC47"/>
</svg>
